# xmcd
#
# Track frame offsets:
#	150
#	14822
#	32243
#	51466
#	65486
#	82763
#	100677
#	116713
#	133533
#	150688
#	166338
#	180516
#
# Disc length: 2685 seconds
#
# Revision: 2
# Processed by: cddbd v1.5.2PL0 Copyright (c) Steve Scherf et al.
# Submitted via: audiograbber 1.83.01
#
DISCID=9b0a7b0c
DTITLE=Eilleen Shania Twain - Beginnings
DYEAR=1999
DGENRE=Rock
TTITLE0=Wild And Wicked
TTITLE1=Two Hearts, One Love
TTITLE2=I Lost My Hearts When I Found You
TTITLE3=Bite My Lip
TTITLE4=(Don't Gimme That) Once Over
TTITLE5=Hate To Love
TTITLE6=Send It With Love
TTITLE7=Luv Eyes
TTITLE8=Rhythm Made Me Do It
TTITLE9=Half Breed
TTITLE10=For The Love Of Him
TTITLE11=For The Love Of Him (Dance Mix)
EXTD=
EXTT0=
EXTT1=
EXTT2=
EXTT3=
EXTT4=
EXTT5=
EXTT6=
EXTT7=
EXTT8=
EXTT9=
EXTT10=
EXTT11=
PLAYORDER=
